{
    "asset" : {
        "generator" : "Khronos glTF Blender I/O v1.8.19",
        "version" : "2.0"
    },
    "scene" : 0,
    "scenes" : [
        {
            "name" : "Scene",
            "nodes" : [
                0
            ]
        }
    ],
    "nodes" : [
        {
            "mesh" : 0,
            "name" : "Cube",
            "rotation" : [
                -0.3535534143447876,
                0.5416752696037292,
                0.4545195400714874,
                0.6123724579811096
            ],
            "scale" : [
                0,
                0,
                0
            ]
        }
    ],
    "animations" : [
        {
            "channels" : [
                {
                    "sampler" : 0,
                    "target" : {
                        "node" : 0,
                        "path" : "scale"
                    }
                }
            ],
            "name" : "CubeAction",
            "samplers" : [
                {
                    "input" : 4,
                    "interpolation" : "LINEAR",
                    "output" : 5
                }
            ]
        }
    ],
    "materials" : [
        {
            "doubleSided" : true,
            "name" : "naranja",
            "pbrMetallicRoughness" : {
                "baseColorFactor" : [
                    1,
                    0.15690827369689941,
                    0,
                    1
                ],
                "metallicFactor" : 0,
                "roughnessFactor" : 0.5
            }
        }
    ],
    "meshes" : [
        {
            "name" : "Cube",
            "primitives" : [
                {
                    "attributes" : {
                        "POSITION" : 0,
                        "NORMAL" : 1,
                        "TEXCOORD_0" : 2
                    },
                    "indices" : 3,
                    "material" : 0
                }
            ]
        }
    ],
    "accessors" : [
        {
            "bufferView" : 0,
            "componentType" : 5126,
            "count" : 4283,
            "max" : [
                0.44996097683906555,
                4.84594202041626,
                1.0400506258010864
            ],
            "min" : [
                -0.39039158821105957,
                -4.855234622955322,
                -1.029655933380127
            ],
            "type" : "VEC3"
        },
        {
            "bufferView" : 1,
            "componentType" : 5126,
            "count" : 4283,
            "type" : "VEC3"
        },
        {
            "bufferView" : 2,
            "componentType" : 5126,
            "count" : 4283,
            "type" : "VEC2"
        },
        {
            "bufferView" : 3,
            "componentType" : 5123,
            "count" : 24576,
            "type" : "SCALAR"
        },
        {
            "bufferView" : 4,
            "componentType" : 5126,
            "count" : 251,
            "max" : [
                8.333333333333334
            ],
            "min" : [
                0
            ],
            "type" : "SCALAR"
        },
        {
            "bufferView" : 5,
            "componentType" : 5126,
            "count" : 251,
            "type" : "VEC3"
        }
    ],
    "bufferViews" : [
        {
            "buffer" : 0,
            "byteLength" : 51396,
            "byteOffset" : 0
        },
        {
            "buffer" : 0,
            "byteLength" : 51396,
            "byteOffset" : 51396
        },
        {
            "buffer" : 0,
            "byteLength" : 34264,
            "byteOffset" : 102792
        },
        {
            "buffer" : 0,
            "byteLength" : 49152,
            "byteOffset" : 137056
        },
        {
            "buffer" : 0,
            "byteLength" : 1004,
            "byteOffset" : 186208
        },
        {
            "buffer" : 0,
            "byteLength" : 3012,
            "byteOffset" : 187212
        }
    ],
    "buffers" : [
        {
            "byteLength" : 190224,
            "uri" : "data:application/octet-stream;base64,"
        }
    ]
}
