{
    "asset" : {
        "generator" : "Khronos glTF Blender I/O v1.8.19",
        "version" : "2.0"
    },
    "scene" : 0,
    "scenes" : [
        {
            "name" : "Scene",
            "nodes" : [
                0
            ]
        }
    ],
    "nodes" : [
        {
            "mesh" : 0,
            "name" : "Tongue.001",
            "rotation" : [
                -0.12278779596090317,
                -0.6963642835617065,
                -0.12278780341148376,
                0.6963642239570618
            ],
            "scale" : [
                0,
                0,
                0
            ]
        }
    ],
    "animations" : [
        {
            "channels" : [
                {
                    "sampler" : 0,
                    "target" : {
                        "node" : 0,
                        "path" : "scale"
                    }
                }
            ],
            "name" : "TongueAction.001",
            "samplers" : [
                {
                    "input" : 4,
                    "interpolation" : "LINEAR",
                    "output" : 5
                }
            ]
        }
    ],
    "materials" : [
        {
            "doubleSided" : true,
            "name" : "Material",
            "pbrMetallicRoughness" : {
                "baseColorFactor" : [
                    0.20960001647472382,
                    0.4008524715900421,
                    0.6350957751274109,
                    1
                ],
                "metallicFactor" : 0,
                "roughnessFactor" : 0.5
            }
        }
    ],
    "meshes" : [
        {
            "name" : "Tongue_Retopo.001",
            "primitives" : [
                {
                    "attributes" : {
                        "POSITION" : 0,
                        "NORMAL" : 1,
                        "TEXCOORD_0" : 2
                    },
                    "indices" : 3,
                    "material" : 0
                }
            ]
        }
    ],
    "accessors" : [
        {
            "bufferView" : 0,
            "componentType" : 5126,
            "count" : 20333,
            "max" : [
                0.5829163193702698,
                1.020031213760376,
                1.9327833652496338
            ],
            "min" : [
                -0.582916259765625,
                -0.60247403383255,
                -2.8092143535614014
            ],
            "type" : "VEC3"
        },
        {
            "bufferView" : 1,
            "componentType" : 5126,
            "count" : 20333,
            "type" : "VEC3"
        },
        {
            "bufferView" : 2,
            "componentType" : 5126,
            "count" : 20333,
            "type" : "VEC2"
        },
        {
            "bufferView" : 3,
            "componentType" : 5123,
            "count" : 107400,
            "type" : "SCALAR"
        },
        {
            "bufferView" : 4,
            "componentType" : 5126,
            "count" : 251,
            "max" : [
                8.333333333333334
            ],
            "min" : [
                0
            ],
            "type" : "SCALAR"
        },
        {
            "bufferView" : 5,
            "componentType" : 5126,
            "count" : 251,
            "type" : "VEC3"
        }
    ],
    "bufferViews" : [
        {
            "buffer" : 0,
            "byteLength" : 243996,
            "byteOffset" : 0
        },
        {
            "buffer" : 0,
            "byteLength" : 243996,
            "byteOffset" : 243996
        },
        {
            "buffer" : 0,
            "byteLength" : 162664,
            "byteOffset" : 487992
        },
        {
            "buffer" : 0,
            "byteLength" : 214800,
            "byteOffset" : 650656
        },
        {
            "buffer" : 0,
            "byteLength" : 1004,
            "byteOffset" : 865456
        },
        {
            "buffer" : 0,
            "byteLength" : 3012,
            "byteOffset" : 866460
        }
    ],
    "buffers" : [
        {
            "byteLength" : 869472,
            "uri" : "data:application/octet-stream;base64,"
        }
    ]
}
