{
    "asset" : {
        "generator" : "Khronos glTF Blender I/O v1.7.33",
        "version" : "2.0"
    },
    "scene" : 1,
    "scenes" : [
        {
            "name" : "\u0412\u0438\u0448\u043d\u044f",
            "nodes" : [
                0,
                1,
                2,
                3
            ]
        },
        {
            "name" : "\u041a\u0440\u0443\u0436\u043a\u0430",
            "nodes" : [
                4
            ]
        }
    ],
    "nodes" : [
        {
            "mesh" : 0,
            "name" : "Sphere",
            "rotation" : [
                0.017677096650004387,
                -0.02491702139377594,
                0.2552768588066101,
                0.9663851857185364
            ],
            "scale" : [
                0.7866805195808411,
                0.7866806983947754,
                0.7866806983947754
            ],
            "translation" : [
                -0.0014860071241855621,
                0.11981479823589325,
                -0.047314874827861786
            ]
        },
        {
            "mesh" : 1,
            "name" : "Sphere.001",
            "rotation" : [
                -0.052799973636865616,
                -0.017112284898757935,
                -0.008313522674143314,
                -0.9984238743782043
            ],
            "scale" : [
                0.6880518198013306,
                0.6880518198013306,
                0.6880518198013306
            ],
            "translation" : [
                0.01582278124988079,
                0.005015755072236061,
                -1.8865923881530762
            ]
        },
        {
            "mesh" : 2,
            "name" : "Sphere.002",
            "rotation" : [
                -0.2575990557670593,
                0.14942778646945953,
                0.08777020126581192,
                0.9505842924118042
            ],
            "scale" : [
                0.7419594526290894,
                0.7419594526290894,
                0.7419595718383789
            ],
            "translation" : [
                1.5342947244644165,
                0.07076665759086609,
                -1.095611572265625
            ]
        },
        {
            "mesh" : 3,
            "name" : "Cube",
            "scale" : [
                0.06287972629070282,
                0.06287972629070282,
                0.06287972629070282
            ],
            "translation" : [
                0.8128867745399475,
                1.2679061889648438,
                0
            ]
        },
        {
            "mesh" : 4,
            "name" : "Circle.001",
            "rotation" : [
                0,
                0.7071068286895752,
                0,
                0.7071067094802856
            ],
            "scale" : [
                0.20525410771369934,
                0.20525406301021576,
                0.20525410771369934
            ]
        }
    ],
    "animations" : [
        {
            "channels" : [
                {
                    "sampler" : 0,
                    "target" : {
                        "node" : 4,
                        "path" : "translation"
                    }
                },
                {
                    "sampler" : 1,
                    "target" : {
                        "node" : 4,
                        "path" : "rotation"
                    }
                },
                {
                    "sampler" : 2,
                    "target" : {
                        "node" : 4,
                        "path" : "scale"
                    }
                }
            ],
            "name" : "Circle.001Action",
            "samplers" : [
                {
                    "input" : 22,
                    "interpolation" : "LINEAR",
                    "output" : 23
                },
                {
                    "input" : 22,
                    "interpolation" : "LINEAR",
                    "output" : 24
                },
                {
                    "input" : 25,
                    "interpolation" : "LINEAR",
                    "output" : 26
                }
            ]
        }
    ],
    "materials" : [
        {
            "doubleSided" : true,
            "name" : "Material.002",
            "pbrMetallicRoughness" : {
                "baseColorFactor" : [
                    0.044431254267692566,
                    0,
                    0,
                    1
                ],
                "metallicFactor" : 0.11650485545396805,
                "roughnessFactor" : 0.07281553745269775
            }
        },
        {
            "doubleSided" : true,
            "name" : "Material.004",
            "pbrMetallicRoughness" : {
                "baseColorTexture" : {
                    "index" : 0
                },
                "metallicFactor" : 0,
                "roughnessFactor" : 0.45145630836486816
            }
        },
        {
            "doubleSided" : true,
            "name" : "Material.007",
            "pbrMetallicRoughness" : {
                "baseColorFactor" : [
                    0.800000011920929,
                    0.800000011920929,
                    0.800000011920929,
                    1
                ],
                "metallicFactor" : 0,
                "roughnessFactor" : 0.5
            }
        },
        {
            "doubleSided" : true,
            "name" : "Material.001",
            "pbrMetallicRoughness" : {
                "baseColorFactor" : [
                    0.15529793500900269,
                    0.19233179092407227,
                    0.15962013602256775,
                    1
                ],
                "metallicFactor" : 0,
                "roughnessFactor" : 0.16727101802825928
            }
        }
    ],
    "meshes" : [
        {
            "name" : "Sphere",
            "primitives" : [
                {
                    "attributes" : {
                        "POSITION" : 0,
                        "NORMAL" : 1,
                        "TEXCOORD_0" : 2
                    },
                    "indices" : 3,
                    "material" : 0
                }
            ]
        },
        {
            "name" : "Sphere.001",
            "primitives" : [
                {
                    "attributes" : {
                        "POSITION" : 4,
                        "NORMAL" : 5,
                        "TEXCOORD_0" : 6
                    },
                    "indices" : 3,
                    "material" : 0
                }
            ]
        },
        {
            "name" : "Sphere.002",
            "primitives" : [
                {
                    "attributes" : {
                        "POSITION" : 7,
                        "NORMAL" : 8,
                        "TEXCOORD_0" : 9
                    },
                    "indices" : 3,
                    "material" : 0
                }
            ]
        },
        {
            "name" : "Cube",
            "primitives" : [
                {
                    "attributes" : {
                        "POSITION" : 10,
                        "NORMAL" : 11,
                        "TEXCOORD_0" : 12
                    },
                    "indices" : 13,
                    "material" : 1
                }
            ]
        },
        {
            "name" : "Circle.002",
            "primitives" : [
                {
                    "attributes" : {
                        "POSITION" : 14,
                        "NORMAL" : 15,
                        "TEXCOORD_0" : 16
                    },
                    "indices" : 17,
                    "material" : 2
                },
                {
                    "attributes" : {
                        "POSITION" : 18,
                        "NORMAL" : 19,
                        "TEXCOORD_0" : 20
                    },
                    "indices" : 21,
                    "material" : 3
                }
            ]
        }
    ],
    "textures" : [
        {
            "sampler" : 0,
            "source" : 0
        }
    ],
    "images" : [
        {
            "bufferView" : 14,
            "mimeType" : "image/jpeg",
            "name" : "w400h400"
        }
    ],
    "accessors" : [
        {
            "bufferView" : 0,
            "componentType" : 5126,
            "count" : 559,
            "max" : [
                0.9369699954986572,
                0.9054851531982422,
                1.0071979761123657
            ],
            "min" : [
                -0.9369693994522095,
                -1.0344470739364624,
                -1.0071983337402344
            ],
            "type" : "VEC3"
        },
        {
            "bufferView" : 1,
            "componentType" : 5126,
            "count" : 559,
            "type" : "VEC3"
        },
        {
            "bufferView" : 2,
            "componentType" : 5126,
            "count" : 559,
            "type" : "VEC2"
        },
        {
            "bufferView" : 3,
            "componentType" : 5123,
            "count" : 2880,
            "type" : "SCALAR"
        },
        {
            "bufferView" : 4,
            "componentType" : 5126,
            "count" : 559,
            "max" : [
                0.9369699954986572,
                0.9054851531982422,
                1.0071979761123657
            ],
            "min" : [
                -0.9369693994522095,
                -1.0344470739364624,
                -1.0071983337402344
            ],
            "type" : "VEC3"
        },
        {
            "bufferView" : 5,
            "componentType" : 5126,
            "count" : 559,
            "type" : "VEC3"
        },
        {
            "bufferView" : 6,
            "componentType" : 5126,
            "count" : 559,
            "type" : "VEC2"
        },
        {
            "bufferView" : 7,
            "componentType" : 5126,
            "count" : 559,
            "max" : [
                0.9369699954986572,
                0.9054851531982422,
                1.0071979761123657
            ],
            "min" : [
                -0.9369693994522095,
                -1.0344470739364624,
                -1.0071983337402344
            ],
            "type" : "VEC3"
        },
        {
            "bufferView" : 8,
            "componentType" : 5126,
            "count" : 559,
            "type" : "VEC3"
        },
        {
            "bufferView" : 9,
            "componentType" : 5126,
            "count" : 559,
            "type" : "VEC2"
        },
        {
            "bufferView" : 10,
            "componentType" : 5126,
            "count" : 257,
            "max" : [
                13.994470596313477,
                31.710344314575195,
                2.381366491317749
            ],
            "min" : [
                -20.30586814880371,
                -13.574557304382324,
                -31.79673194885254
            ],
            "type" : "VEC3"
        },
        {
            "bufferView" : 11,
            "componentType" : 5126,
            "count" : 257,
            "type" : "VEC3"
        },
        {
            "bufferView" : 12,
            "componentType" : 5126,
            "count" : 257,
            "type" : "VEC2"
        },
        {
            "bufferView" : 13,
            "componentType" : 5123,
            "count" : 822,
            "type" : "SCALAR"
        },
        {
            "bufferView" : 15,
            "componentType" : 5126,
            "count" : 8098,
            "max" : [
                0.849715530872345,
                1.9794312715530396,
                0.8486781716346741
            ],
            "min" : [
                -0.8497730493545532,
                -2.3841872121010965e-07,
                -0.8496980667114258
            ],
            "type" : "VEC3"
        },
        {
            "bufferView" : 16,
            "componentType" : 5126,
            "count" : 8098,
            "type" : "VEC3"
        },
        {
            "bufferView" : 17,
            "componentType" : 5126,
            "count" : 8098,
            "type" : "VEC2"
        },
        {
            "bufferView" : 18,
            "componentType" : 5123,
            "count" : 48576,
            "type" : "SCALAR"
        },
        {
            "bufferView" : 19,
            "componentType" : 5126,
            "count" : 58536,
            "max" : [
                0.9587063789367676,
                3.0157105922698975,
                1.861624836921692
            ],
            "min" : [
                -0.9553598165512085,
                -0.5293110013008118,
                -0.955344557762146
            ],
            "type" : "VEC3"
        },
        {
            "bufferView" : 20,
            "componentType" : 5126,
            "count" : 58536,
            "type" : "VEC3"
        },
        {
            "bufferView" : 21,
            "componentType" : 5126,
            "count" : 58536,
            "type" : "VEC2"
        },
        {
            "bufferView" : 22,
            "componentType" : 5123,
            "count" : 336192,
            "type" : "SCALAR"
        },
        {
            "bufferView" : 23,
            "componentType" : 5126,
            "count" : 2,
            "max" : [
                3
            ],
            "min" : [
                0.03333333333333333
            ],
            "type" : "SCALAR"
        },
        {
            "bufferView" : 24,
            "componentType" : 5126,
            "count" : 2,
            "type" : "VEC3"
        },
        {
            "bufferView" : 25,
            "componentType" : 5126,
            "count" : 2,
            "type" : "VEC4"
        },
        {
            "bufferView" : 26,
            "componentType" : 5126,
            "count" : 90,
            "max" : [
                3
            ],
            "min" : [
                0.03333333333333333
            ],
            "type" : "SCALAR"
        },
        {
            "bufferView" : 27,
            "componentType" : 5126,
            "count" : 90,
            "type" : "VEC3"
        }
    ],
    "bufferViews" : [
        {
            "buffer" : 0,
            "byteLength" : 6708,
            "byteOffset" : 0
        },
        {
            "buffer" : 0,
            "byteLength" : 6708,
            "byteOffset" : 6708
        },
        {
            "buffer" : 0,
            "byteLength" : 4472,
            "byteOffset" : 13416
        },
        {
            "buffer" : 0,
            "byteLength" : 5760,
            "byteOffset" : 17888
        },
        {
            "buffer" : 0,
            "byteLength" : 6708,
            "byteOffset" : 23648
        },
        {
            "buffer" : 0,
            "byteLength" : 6708,
            "byteOffset" : 30356
        },
        {
            "buffer" : 0,
            "byteLength" : 4472,
            "byteOffset" : 37064
        },
        {
            "buffer" : 0,
            "byteLength" : 6708,
            "byteOffset" : 41536
        },
        {
            "buffer" : 0,
            "byteLength" : 6708,
            "byteOffset" : 48244
        },
        {
            "buffer" : 0,
            "byteLength" : 4472,
            "byteOffset" : 54952
        },
        {
            "buffer" : 0,
            "byteLength" : 3084,
            "byteOffset" : 59424
        },
        {
            "buffer" : 0,
            "byteLength" : 3084,
            "byteOffset" : 62508
        },
        {
            "buffer" : 0,
            "byteLength" : 2056,
            "byteOffset" : 65592
        },
        {
            "buffer" : 0,
            "byteLength" : 1644,
            "byteOffset" : 67648
        },
        {
            "buffer" : 0,
            "byteLength" : 15047,
            "byteOffset" : 69292
        },
        {
            "buffer" : 0,
            "byteLength" : 97176,
            "byteOffset" : 84340
        },
        {
            "buffer" : 0,
            "byteLength" : 97176,
            "byteOffset" : 181516
        },
        {
            "buffer" : 0,
            "byteLength" : 64784,
            "byteOffset" : 278692
        },
        {
            "buffer" : 0,
            "byteLength" : 97152,
            "byteOffset" : 343476
        },
        {
            "buffer" : 0,
            "byteLength" : 702432,
            "byteOffset" : 440628
        },
        {
            "buffer" : 0,
            "byteLength" : 702432,
            "byteOffset" : 1143060
        },
        {
            "buffer" : 0,
            "byteLength" : 468288,
            "byteOffset" : 1845492
        },
        {
            "buffer" : 0,
            "byteLength" : 672384,
            "byteOffset" : 2313780
        },
        {
            "buffer" : 0,
            "byteLength" : 8,
            "byteOffset" : 2986164
        },
        {
            "buffer" : 0,
            "byteLength" : 24,
            "byteOffset" : 2986172
        },
        {
            "buffer" : 0,
            "byteLength" : 32,
            "byteOffset" : 2986196
        },
        {
            "buffer" : 0,
            "byteLength" : 360,
            "byteOffset" : 2986228
        },
        {
            "buffer" : 0,
            "byteLength" : 1080,
            "byteOffset" : 2986588
        }
    ],
    "samplers" : [
        {
            "magFilter" : 9729,
            "minFilter" : 9987
        }
    ],
    "buffers" : [
        {
            "byteLength" : 2987668,
            "uri" : "data:application/octet-stream;base64,"
        }
    ]
}
