{
    "asset" : {
        "generator" : "Khronos glTF Blender I/O v3.2.43",
        "version" : "2.0"
    },
    "extensionsUsed" : [
        "KHR_materials_transmission"
    ],
    "scene" : 0,
    "scenes" : [
        {
            "name" : "Scene",
            "nodes" : [
                0
            ]
        }
    ],
    "nodes" : [
        {
            "mesh" : 0,
            "name" : "Circle.002",
            "rotation" : [
                0,
                0,
                0.7071068286895752,
                0.7071068286895752
            ],
            "scale" : [
                0.23394857347011566,
                0.23394857347011566,
                0.23394857347011566
            ],
            "translation" : [
                0.5047163963317871,
                0,
                0.013640984892845154
            ]
        }
    ],
    "animations" : [
        {
            "channels" : [
                {
                    "sampler" : 0,
                    "target" : {
                        "node" : 0,
                        "path" : "translation"
                    }
                },
                {
                    "sampler" : 1,
                    "target" : {
                        "node" : 0,
                        "path" : "rotation"
                    }
                },
                {
                    "sampler" : 2,
                    "target" : {
                        "node" : 0,
                        "path" : "scale"
                    }
                }
            ],
            "name" : "Circle.001Action.001",
            "samplers" : [
                {
                    "input" : 10,
                    "interpolation" : "LINEAR",
                    "output" : 11
                },
                {
                    "input" : 10,
                    "interpolation" : "LINEAR",
                    "output" : 12
                },
                {
                    "input" : 10,
                    "interpolation" : "LINEAR",
                    "output" : 13
                }
            ]
        }
    ],
    "materials" : [
        {
            "alphaMode" : "BLEND",
            "doubleSided" : true,
            "name" : "Material.001",
            "pbrMetallicRoughness" : {}
        },
        {
            "doubleSided" : true,
            "extensions" : {
                "KHR_materials_transmission" : {
                    "transmissionFactor" : 1
                }
            },
            "name" : "Material.004",
            "pbrMetallicRoughness" : {
                "baseColorFactor" : [
                    0.20389539003372192,
                    0.052278801798820496,
                    0.06786055117845535,
                    1
                ],
                "metallicFactor" : 0,
                "roughnessFactor" : 0.2292993664741516
            }
        }
    ],
    "meshes" : [
        {
            "name" : "Mesh",
            "primitives" : [
                {
                    "attributes" : {
                        "POSITION" : 0,
                        "NORMAL" : 1,
                        "TANGENT" : 2,
                        "TEXCOORD_0" : 3
                    },
                    "indices" : 4,
                    "material" : 0
                },
                {
                    "attributes" : {
                        "POSITION" : 5,
                        "NORMAL" : 6,
                        "TANGENT" : 7,
                        "TEXCOORD_0" : 8
                    },
                    "indices" : 9,
                    "material" : 1
                }
            ]
        }
    ],
    "accessors" : [
        {
            "bufferView" : 0,
            "componentType" : 5126,
            "count" : 13570,
            "max" : [
                0.9935951828956604,
                4.023150444030762,
                0.9935951828956604
            ],
            "min" : [
                -0.9935951828956604,
                0.011571215465664864,
                -0.9935951828956604
            ],
            "type" : "VEC3"
        },
        {
            "bufferView" : 1,
            "componentType" : 5126,
            "count" : 13570,
            "type" : "VEC3"
        },
        {
            "bufferView" : 2,
            "componentType" : 5126,
            "count" : 13570,
            "type" : "VEC4"
        },
        {
            "bufferView" : 3,
            "componentType" : 5126,
            "count" : 13570,
            "type" : "VEC2"
        },
        {
            "bufferView" : 4,
            "componentType" : 5123,
            "count" : 81408,
            "type" : "SCALAR"
        },
        {
            "bufferView" : 5,
            "componentType" : 5126,
            "count" : 5378,
            "max" : [
                0.8790054321289062,
                2.493936777114868,
                0.8790054321289062
            ],
            "min" : [
                -0.8790052533149719,
                1.6005605459213257,
                -0.8790053725242615
            ],
            "type" : "VEC3"
        },
        {
            "bufferView" : 6,
            "componentType" : 5126,
            "count" : 5378,
            "type" : "VEC3"
        },
        {
            "bufferView" : 7,
            "componentType" : 5126,
            "count" : 5378,
            "type" : "VEC4"
        },
        {
            "bufferView" : 8,
            "componentType" : 5126,
            "count" : 5378,
            "type" : "VEC2"
        },
        {
            "bufferView" : 9,
            "componentType" : 5123,
            "count" : 32256,
            "type" : "SCALAR"
        },
        {
            "bufferView" : 10,
            "componentType" : 5126,
            "count" : 151,
            "max" : [
                5
            ],
            "min" : [
                0
            ],
            "type" : "SCALAR"
        },
        {
            "bufferView" : 11,
            "componentType" : 5126,
            "count" : 151,
            "type" : "VEC3"
        },
        {
            "bufferView" : 12,
            "componentType" : 5126,
            "count" : 151,
            "type" : "VEC4"
        },
        {
            "bufferView" : 13,
            "componentType" : 5126,
            "count" : 151,
            "type" : "VEC3"
        }
    ],
    "bufferViews" : [
        {
            "buffer" : 0,
            "byteLength" : 162840,
            "byteOffset" : 0
        },
        {
            "buffer" : 0,
            "byteLength" : 162840,
            "byteOffset" : 162840
        },
        {
            "buffer" : 0,
            "byteLength" : 217120,
            "byteOffset" : 325680
        },
        {
            "buffer" : 0,
            "byteLength" : 108560,
            "byteOffset" : 542800
        },
        {
            "buffer" : 0,
            "byteLength" : 162816,
            "byteOffset" : 651360
        },
        {
            "buffer" : 0,
            "byteLength" : 64536,
            "byteOffset" : 814176
        },
        {
            "buffer" : 0,
            "byteLength" : 64536,
            "byteOffset" : 878712
        },
        {
            "buffer" : 0,
            "byteLength" : 86048,
            "byteOffset" : 943248
        },
        {
            "buffer" : 0,
            "byteLength" : 43024,
            "byteOffset" : 1029296
        },
        {
            "buffer" : 0,
            "byteLength" : 64512,
            "byteOffset" : 1072320
        },
        {
            "buffer" : 0,
            "byteLength" : 604,
            "byteOffset" : 1136832
        },
        {
            "buffer" : 0,
            "byteLength" : 1812,
            "byteOffset" : 1137436
        },
        {
            "buffer" : 0,
            "byteLength" : 2416,
            "byteOffset" : 1139248
        },
        {
            "buffer" : 0,
            "byteLength" : 1812,
            "byteOffset" : 1141664
        }
    ],
    "buffers" : [
        {
            "byteLength" : 1143476,
            "uri" : "data:application/octet-stream;base64,"
        }
    ]
}
